<mxfile host="65bd71144e">
    <diagram id="OI1CbE9Jq7gKncJ1jP09" name="Page-1">
        <mxGraphModel dx="2981" dy="731" grid="1" gridSize="10" guides="1" tooltips="1" connect="1" arrows="1" fold="1" page="1" pageScale="1" pageWidth="850" pageHeight="1100" background="none" math="0" shadow="0">
            <root>
                <mxCell id="0"/>
                <mxCell id="1" parent="0"/>
                <mxCell id="2" value="" style="rounded=0;whiteSpace=wrap;html=1;" parent="1" vertex="1">
                    <mxGeometry x="-240" y="360" width="1130" height="630" as="geometry"/>
                </mxCell>
                <mxCell id="11" value="" style="rounded=0;whiteSpace=wrap;html=1;align=left;imageVerticalAlign=top;sketch=0;glass=0;verticalAlign=top;" parent="1" vertex="1">
                    <mxGeometry x="85" y="410" width="330" height="370" as="geometry"/>
                </mxCell>
                <mxCell id="3" value="stdout (somehow...)" style="rounded=0;whiteSpace=wrap;html=1;" parent="1" vertex="1">
                    <mxGeometry x="-220" y="810" width="975" height="160" as="geometry"/>
                </mxCell>
                <mxCell id="7" value="Add Project Data from File" style="rounded=1;whiteSpace=wrap;html=1;align=center;" parent="1" vertex="1">
                    <mxGeometry x="-230" y="30" width="200" height="40" as="geometry"/>
                </mxCell>
                <mxCell id="17" value="" style="rounded=0;whiteSpace=wrap;html=1;glass=0;labelBackgroundColor=#2a2a2a;sketch=0;fontColor=none;" parent="1" vertex="1">
                    <mxGeometry x="-240" y="320" width="1130" height="40" as="geometry"/>
                </mxCell>
                <mxCell id="22" value="" style="rounded=0;whiteSpace=wrap;html=1;align=left;imageVerticalAlign=top;sketch=0;glass=0;verticalAlign=top;" parent="1" vertex="1">
                    <mxGeometry x="425" y="410" width="330" height="370" as="geometry"/>
                </mxCell>
                <mxCell id="26" value="Baseline Building" style="rounded=0;whiteSpace=wrap;html=1;" parent="1" vertex="1">
                    <mxGeometry x="85" y="380" width="330" height="30" as="geometry"/>
                </mxCell>
                <mxCell id="27" value="Proposed Building" style="rounded=0;whiteSpace=wrap;html=1;" parent="1" vertex="1">
                    <mxGeometry x="425" y="380" width="330" height="30" as="geometry"/>
                </mxCell>
                <mxCell id="32" value="Segment A&lt;br&gt;Name&lt;br&gt;Constuction Type&lt;br&gt;&amp;lt;Preview of Data&amp;gt;" style="rounded=0;whiteSpace=wrap;html=1;" parent="1" vertex="1">
                    <mxGeometry x="105" y="430" width="290" height="90" as="geometry"/>
                </mxCell>
                <mxCell id="34" value="Segment A&lt;br&gt;Name&lt;br&gt;Constuction Type&lt;br&gt;&amp;lt;Preview of Data&amp;gt;" style="rounded=0;whiteSpace=wrap;html=1;" parent="1" vertex="1">
                    <mxGeometry x="445" y="430" width="290" height="90" as="geometry"/>
                </mxCell>
                <mxCell id="37" value="-" style="ellipse;whiteSpace=wrap;html=1;rounded=0;glass=0;labelBackgroundColor=#2a2a2a;sketch=0;strokeColor=default;" parent="1" vertex="1">
                    <mxGeometry x="235" y="510" width="20" height="20" as="geometry"/>
                </mxCell>
                <mxCell id="42" value="-" style="ellipse;whiteSpace=wrap;html=1;rounded=0;glass=0;labelBackgroundColor=#2a2a2a;sketch=0;strokeColor=default;" parent="1" vertex="1">
                    <mxGeometry x="580" y="510" width="20" height="20" as="geometry"/>
                </mxCell>
                <mxCell id="47" value="" style="endArrow=none;dashed=1;html=1;strokeWidth=4;fontColor=none;fillColor=#d80073;strokeColor=#A50040;dashPattern=1 1;" parent="1" edge="1">
                    <mxGeometry width="50" height="50" relative="1" as="geometry">
                        <mxPoint x="420" y="745" as="sourcePoint"/>
                        <mxPoint x="420" y="370" as="targetPoint"/>
                    </mxGeometry>
                </mxCell>
                <mxCell id="48" value="" style="endArrow=none;dashed=1;html=1;strokeWidth=4;fontColor=none;fillColor=#d80073;strokeColor=#A50040;dashPattern=1 1;" parent="1" edge="1">
                    <mxGeometry width="50" height="50" relative="1" as="geometry">
                        <mxPoint x="-283.57142857142856" y="364" as="sourcePoint"/>
                        <mxPoint x="915" y="364.38000000000005" as="targetPoint"/>
                    </mxGeometry>
                </mxCell>
                <mxCell id="49" value="" style="endArrow=none;dashed=1;html=1;strokeWidth=4;fontColor=none;fillColor=#d80073;strokeColor=#A50040;dashPattern=1 1;" parent="1" edge="1">
                    <mxGeometry width="50" height="50" relative="1" as="geometry">
                        <mxPoint x="-290" y="980" as="sourcePoint"/>
                        <mxPoint x="907" y="980" as="targetPoint"/>
                    </mxGeometry>
                </mxCell>
                <mxCell id="50" value="EXPORT&lt;br&gt;&amp;gt;" style="rounded=1;whiteSpace=wrap;html=1;align=center;" parent="1" vertex="1">
                    <mxGeometry x="790" y="590" width="70" height="72.5" as="geometry"/>
                </mxCell>
                <mxCell id="51" value="" style="endArrow=none;dashed=1;html=1;strokeWidth=4;fontColor=none;fillColor=#d80073;strokeColor=#A50040;dashPattern=1 1;" parent="1" edge="1">
                    <mxGeometry width="50" height="50" relative="1" as="geometry">
                        <mxPoint x="-270" y="797" as="sourcePoint"/>
                        <mxPoint x="897.5" y="797" as="targetPoint"/>
                    </mxGeometry>
                </mxCell>
                <mxCell id="52" value="" style="endArrow=none;dashed=1;html=1;strokeWidth=4;fontColor=none;fillColor=#d80073;strokeColor=#A50040;dashPattern=1 1;" parent="1" edge="1">
                    <mxGeometry width="50" height="50" relative="1" as="geometry">
                        <mxPoint x="74" y="800.8333129882812" as="sourcePoint"/>
                        <mxPoint x="74" y="320" as="targetPoint"/>
                    </mxGeometry>
                </mxCell>
                <mxCell id="56" value="" style="rounded=0;whiteSpace=wrap;html=1;" vertex="1" parent="1">
                    <mxGeometry x="-1329.25" y="335" width="755" height="670" as="geometry"/>
                </mxCell>
                <mxCell id="57" value="" style="rounded=0;whiteSpace=wrap;html=1;align=left;imageVerticalAlign=top;sketch=0;glass=0;verticalAlign=top;" vertex="1" parent="1">
                    <mxGeometry x="-1264.25" y="425" width="330" height="330" as="geometry"/>
                </mxCell>
                <mxCell id="58" value="stdout (somehow...)" style="rounded=0;whiteSpace=wrap;html=1;" vertex="1" parent="1">
                    <mxGeometry x="-1319.25" y="825" width="725" height="160" as="geometry"/>
                </mxCell>
                <mxCell id="59" value="Add Project Data from File" style="rounded=1;whiteSpace=wrap;html=1;align=center;" vertex="1" parent="1">
                    <mxGeometry x="-1219.25" y="345" width="200" height="40" as="geometry"/>
                </mxCell>
                <mxCell id="60" value="" style="rounded=0;whiteSpace=wrap;html=1;glass=0;labelBackgroundColor=#2a2a2a;sketch=0;fontColor=none;" vertex="1" parent="1">
                    <mxGeometry x="-1329.25" y="275" width="755" height="60" as="geometry"/>
                </mxCell>
                <mxCell id="61" style="edgeStyle=none;html=1;entryX=0.5;entryY=1;entryDx=0;entryDy=0;fontColor=none;" edge="1" parent="1" source="62" target="66">
                    <mxGeometry relative="1" as="geometry">
                        <Array as="points">
                            <mxPoint x="-1209.25" y="305"/>
                        </Array>
                    </mxGeometry>
                </mxCell>
                <mxCell id="62" value="File" style="text;html=1;align=center;verticalAlign=middle;whiteSpace=wrap;rounded=0;glass=0;labelBackgroundColor=#2a2a2a;sketch=0;strokeColor=default;dashed=1;" vertex="1" parent="1">
                    <mxGeometry x="-1309.25" y="290" width="60" height="30" as="geometry"/>
                </mxCell>
                <mxCell id="63" value="" style="rounded=0;whiteSpace=wrap;html=1;align=left;imageVerticalAlign=top;sketch=0;glass=0;verticalAlign=top;" vertex="1" parent="1">
                    <mxGeometry x="-924.25" y="425" width="330" height="330" as="geometry"/>
                </mxCell>
                <mxCell id="64" value="Baseline Building" style="rounded=0;whiteSpace=wrap;html=1;" vertex="1" parent="1">
                    <mxGeometry x="-1264.25" y="395" width="330" height="30" as="geometry"/>
                </mxCell>
                <mxCell id="65" value="Proposed Building" style="rounded=0;whiteSpace=wrap;html=1;" vertex="1" parent="1">
                    <mxGeometry x="-924.25" y="395" width="330" height="30" as="geometry"/>
                </mxCell>
                <mxCell id="66" value="New Project...&lt;br&gt;Open...&lt;br&gt;Save...&lt;br&gt;Save As...&lt;br&gt;Close" style="text;html=1;align=center;verticalAlign=middle;whiteSpace=wrap;rounded=0;glass=0;labelBackgroundColor=#2a2a2a;sketch=0;strokeColor=default;" vertex="1" parent="1">
                    <mxGeometry x="-1289.25" y="145" width="160" height="80" as="geometry"/>
                </mxCell>
                <mxCell id="67" value="Segment A&lt;br&gt;Name&lt;br&gt;Constuction Type&lt;br&gt;&amp;lt;Preview of Data&amp;gt;" style="rounded=0;whiteSpace=wrap;html=1;" vertex="1" parent="1">
                    <mxGeometry x="-1244.25" y="445" width="290" height="90" as="geometry"/>
                </mxCell>
                <mxCell id="68" value="Segment A&lt;br&gt;Name&lt;br&gt;Constuction Type&lt;br&gt;&amp;lt;Preview of Data&amp;gt;" style="rounded=0;whiteSpace=wrap;html=1;" vertex="1" parent="1">
                    <mxGeometry x="-904.25" y="445" width="290" height="90" as="geometry"/>
                </mxCell>
                <mxCell id="69" value="-" style="ellipse;whiteSpace=wrap;html=1;rounded=0;glass=0;labelBackgroundColor=#2a2a2a;sketch=0;strokeColor=default;" vertex="1" parent="1">
                    <mxGeometry x="-1114.25" y="525" width="20" height="20" as="geometry"/>
                </mxCell>
                <mxCell id="70" value="&lt;i&gt;Create New Building Segment from File&lt;/i&gt;" style="rounded=0;whiteSpace=wrap;html=1;dashed=1;" vertex="1" parent="1">
                    <mxGeometry x="-1244.25" y="555" width="290" height="90" as="geometry"/>
                </mxCell>
                <mxCell id="71" value="&lt;i&gt;Create New Building Segment from File&lt;/i&gt;" style="rounded=0;whiteSpace=wrap;html=1;dashed=1;" vertex="1" parent="1">
                    <mxGeometry x="-904.25" y="555" width="290" height="90" as="geometry"/>
                </mxCell>
                <mxCell id="72" value="+" style="ellipse;whiteSpace=wrap;html=1;rounded=0;glass=0;labelBackgroundColor=#2a2a2a;sketch=0;strokeColor=default;" vertex="1" parent="1">
                    <mxGeometry x="-769.25" y="630" width="20" height="20" as="geometry"/>
                </mxCell>
                <mxCell id="73" value="-" style="ellipse;whiteSpace=wrap;html=1;rounded=0;glass=0;labelBackgroundColor=#2a2a2a;sketch=0;strokeColor=default;" vertex="1" parent="1">
                    <mxGeometry x="-769.25" y="525" width="20" height="20" as="geometry"/>
                </mxCell>
                <mxCell id="74" value="+" style="ellipse;whiteSpace=wrap;html=1;rounded=0;glass=0;labelBackgroundColor=#2a2a2a;sketch=0;strokeColor=default;" vertex="1" parent="1">
                    <mxGeometry x="-1114.25" y="630" width="20" height="20" as="geometry"/>
                </mxCell>
                <mxCell id="75" value="" style="endArrow=none;dashed=1;html=1;strokeWidth=4;fontColor=none;fillColor=#d80073;strokeColor=#A50040;dashPattern=1 1;exitX=-0.001;exitY=0.636;exitDx=0;exitDy=0;exitPerimeter=0;" edge="1" parent="1" source="56">
                    <mxGeometry width="50" height="50" relative="1" as="geometry">
                        <mxPoint x="-1419.25" y="763" as="sourcePoint"/>
                        <mxPoint x="-559.25" y="763" as="targetPoint"/>
                    </mxGeometry>
                </mxCell>
                <mxCell id="76" value="" style="endArrow=none;dashed=1;html=1;strokeWidth=4;fontColor=none;fillColor=#d80073;strokeColor=#A50040;dashPattern=1 1;" edge="1" parent="1">
                    <mxGeometry width="50" height="50" relative="1" as="geometry">
                        <mxPoint x="-1329.25" y="389.9999999999998" as="sourcePoint"/>
                        <mxPoint x="-559.25" y="389.9999999999998" as="targetPoint"/>
                    </mxGeometry>
                </mxCell>
                <mxCell id="77" value="" style="endArrow=none;dashed=1;html=1;strokeWidth=4;fontColor=none;fillColor=#d80073;strokeColor=#A50040;dashPattern=1 1;" edge="1" parent="1">
                    <mxGeometry width="50" height="50" relative="1" as="geometry">
                        <mxPoint x="-929.25" y="760" as="sourcePoint"/>
                        <mxPoint x="-929.25" y="384.9999999999998" as="targetPoint"/>
                    </mxGeometry>
                </mxCell>
                <mxCell id="78" value="" style="endArrow=none;dashed=1;html=1;strokeWidth=4;fontColor=none;fillColor=#d80073;strokeColor=#A50040;dashPattern=1 1;" edge="1" parent="1">
                    <mxGeometry width="50" height="50" relative="1" as="geometry">
                        <mxPoint x="-1240" y="349.0000000000002" as="sourcePoint"/>
                        <mxPoint x="-260" y="349.0900000000004" as="targetPoint"/>
                    </mxGeometry>
                </mxCell>
                <mxCell id="79" value="" style="endArrow=none;dashed=1;html=1;strokeWidth=4;fontColor=none;fillColor=#d80073;strokeColor=#A50040;dashPattern=1 1;" edge="1" parent="1">
                    <mxGeometry width="50" height="50" relative="1" as="geometry">
                        <mxPoint x="-1228" y="1005" as="sourcePoint"/>
                        <mxPoint x="-273" y="1005" as="targetPoint"/>
                    </mxGeometry>
                </mxCell>
                <mxCell id="80" value="Export NYSERDA Report" style="rounded=1;whiteSpace=wrap;html=1;align=center;" vertex="1" parent="1">
                    <mxGeometry x="-1029.25" y="775" width="200" height="30" as="geometry"/>
                </mxCell>
                <mxCell id="81" value="" style="endArrow=none;dashed=1;html=1;strokeWidth=4;fontColor=none;fillColor=#d80073;strokeColor=#A50040;dashPattern=1 1;" edge="1" parent="1">
                    <mxGeometry width="50" height="50" relative="1" as="geometry">
                        <mxPoint x="-1237.5" y="822" as="sourcePoint"/>
                        <mxPoint x="-282.5" y="822" as="targetPoint"/>
                    </mxGeometry>
                </mxCell>
                <mxCell id="82" value="" style="endArrow=none;dashed=1;html=1;strokeWidth=4;fontColor=none;fillColor=#d80073;strokeColor=#A50040;dashPattern=1 1;" edge="1" parent="1">
                    <mxGeometry width="50" height="50" relative="1" as="geometry">
                        <mxPoint x="-1275.2499999999995" y="815.8333129882812" as="sourcePoint"/>
                        <mxPoint x="-1275.2499999999995" y="334.9999999999998" as="targetPoint"/>
                    </mxGeometry>
                </mxCell>
                <mxCell id="83" value="1" style="text;html=1;align=center;verticalAlign=middle;resizable=0;points=[];autosize=1;strokeColor=none;fillColor=none;fontSize=36;" vertex="1" parent="1">
                    <mxGeometry x="-1322.25" y="338" width="40" height="50" as="geometry"/>
                </mxCell>
                <mxCell id="84" value="2" style="text;html=1;align=center;verticalAlign=middle;resizable=0;points=[];autosize=1;strokeColor=none;fillColor=none;fontSize=36;" vertex="1" parent="1">
                    <mxGeometry x="-1322.25" y="545" width="40" height="50" as="geometry"/>
                </mxCell>
                <mxCell id="85" value="3" style="text;html=1;align=center;verticalAlign=middle;resizable=0;points=[];autosize=1;strokeColor=none;fillColor=none;fontSize=36;" vertex="1" parent="1">
                    <mxGeometry x="-1322.25" y="763" width="40" height="50" as="geometry"/>
                </mxCell>
                <mxCell id="86" value="" style="rounded=0;whiteSpace=wrap;html=1;" vertex="1" parent="1">
                    <mxGeometry x="-210" y="390" width="260" height="390" as="geometry"/>
                </mxCell>
                <mxCell id="91" value="Project Data" style="rounded=0;whiteSpace=wrap;html=1;" vertex="1" parent="1">
                    <mxGeometry x="-210" y="380" width="260" height="30" as="geometry"/>
                </mxCell>
                <mxCell id="92" value="" style="rounded=0;whiteSpace=wrap;html=1;" vertex="1" parent="1">
                    <mxGeometry x="-195" y="507" width="230" height="105" as="geometry"/>
                </mxCell>
                <mxCell id="93" value="Team Information" style="text;html=1;align=center;verticalAlign=middle;resizable=0;points=[];autosize=1;strokeColor=none;fillColor=none;" vertex="1" parent="1">
                    <mxGeometry x="-195" y="487" width="110" height="20" as="geometry"/>
                </mxCell>
                <mxCell id="94" value="" style="rounded=0;whiteSpace=wrap;html=1;" vertex="1" parent="1">
                    <mxGeometry x="-195" y="650" width="230" height="105" as="geometry"/>
                </mxCell>
                <mxCell id="95" value="Site Information" style="text;html=1;align=center;verticalAlign=middle;resizable=0;points=[];autosize=1;strokeColor=none;fillColor=none;" vertex="1" parent="1">
                    <mxGeometry x="-190" y="630" width="100" height="20" as="geometry"/>
                </mxCell>
                <mxCell id="96" value="Name&lt;br&gt;Other" style="text;html=1;align=center;verticalAlign=middle;resizable=0;points=[];autosize=1;strokeColor=none;fillColor=none;" vertex="1" parent="1">
                    <mxGeometry x="-190" y="430" width="50" height="30" as="geometry"/>
                </mxCell>
                <mxCell id="97" value="" style="rounded=0;whiteSpace=wrap;html=1;" vertex="1" parent="1">
                    <mxGeometry x="-140" y="435" width="180" height="10" as="geometry"/>
                </mxCell>
                <mxCell id="98" value="" style="rounded=0;whiteSpace=wrap;html=1;" vertex="1" parent="1">
                    <mxGeometry x="-140" y="450" width="180" height="10" as="geometry"/>
                </mxCell>
                <mxCell id="99" value="" style="rounded=0;whiteSpace=wrap;html=1;" vertex="1" parent="1">
                    <mxGeometry x="1500" y="180" width="700" height="810" as="geometry"/>
                </mxCell>
                <mxCell id="100" value="" style="rounded=0;whiteSpace=wrap;html=1;align=left;imageVerticalAlign=top;sketch=0;glass=0;verticalAlign=top;" vertex="1" parent="1">
                    <mxGeometry x="1505" y="410" width="330" height="370" as="geometry"/>
                </mxCell>
                <mxCell id="101" value="stdout (somehow...)" style="rounded=0;whiteSpace=wrap;html=1;" vertex="1" parent="1">
                    <mxGeometry x="1510" y="850" width="665" height="120" as="geometry"/>
                </mxCell>
                <mxCell id="102" value="" style="rounded=0;whiteSpace=wrap;html=1;glass=0;labelBackgroundColor=#2a2a2a;sketch=0;fontColor=none;" vertex="1" parent="1">
                    <mxGeometry x="1500" y="140" width="700" height="40" as="geometry"/>
                </mxCell>
                <mxCell id="103" value="" style="rounded=0;whiteSpace=wrap;html=1;align=left;imageVerticalAlign=top;sketch=0;glass=0;verticalAlign=top;" vertex="1" parent="1">
                    <mxGeometry x="1845" y="410" width="330" height="370" as="geometry"/>
                </mxCell>
                <mxCell id="104" value="Baseline Building" style="rounded=0;whiteSpace=wrap;html=1;" vertex="1" parent="1">
                    <mxGeometry x="1505" y="380" width="330" height="30" as="geometry"/>
                </mxCell>
                <mxCell id="105" value="Proposed Building" style="rounded=0;whiteSpace=wrap;html=1;" vertex="1" parent="1">
                    <mxGeometry x="1845" y="380" width="330" height="30" as="geometry"/>
                </mxCell>
                <mxCell id="106" value="Segment A&lt;br&gt;Name&lt;br&gt;Constuction Type&lt;br&gt;&amp;lt;Preview of Data&amp;gt;" style="rounded=0;whiteSpace=wrap;html=1;" vertex="1" parent="1">
                    <mxGeometry x="1525" y="430" width="290" height="90" as="geometry"/>
                </mxCell>
                <mxCell id="107" value="Segment A&lt;br&gt;Name&lt;br&gt;Constuction Type&lt;br&gt;&amp;lt;Preview of Data&amp;gt;" style="rounded=0;whiteSpace=wrap;html=1;" vertex="1" parent="1">
                    <mxGeometry x="1865" y="430" width="290" height="90" as="geometry"/>
                </mxCell>
                <mxCell id="108" value="-" style="ellipse;whiteSpace=wrap;html=1;rounded=0;glass=0;labelBackgroundColor=#2a2a2a;sketch=0;strokeColor=default;" vertex="1" parent="1">
                    <mxGeometry x="1655" y="510" width="20" height="20" as="geometry"/>
                </mxCell>
                <mxCell id="109" value="-" style="ellipse;whiteSpace=wrap;html=1;rounded=0;glass=0;labelBackgroundColor=#2a2a2a;sketch=0;strokeColor=default;" vertex="1" parent="1">
                    <mxGeometry x="2000" y="510" width="20" height="20" as="geometry"/>
                </mxCell>
                <mxCell id="110" value="" style="endArrow=none;dashed=1;html=1;strokeWidth=4;fontColor=none;fillColor=#d80073;strokeColor=#A50040;dashPattern=1 1;" edge="1" parent="1">
                    <mxGeometry width="50" height="50" relative="1" as="geometry">
                        <mxPoint x="1840" y="745" as="sourcePoint"/>
                        <mxPoint x="1840" y="370" as="targetPoint"/>
                    </mxGeometry>
                </mxCell>
                <mxCell id="111" value="" style="endArrow=none;dashed=1;html=1;strokeWidth=4;fontColor=none;fillColor=#d80073;strokeColor=#A50040;dashPattern=1 1;" edge="1" parent="1">
                    <mxGeometry width="50" height="50" relative="1" as="geometry">
                        <mxPoint x="1136.4285714285716" y="364" as="sourcePoint"/>
                        <mxPoint x="2335" y="364.3800000000001" as="targetPoint"/>
                    </mxGeometry>
                </mxCell>
                <mxCell id="112" value="" style="endArrow=none;dashed=1;html=1;strokeWidth=4;fontColor=none;fillColor=#d80073;strokeColor=#A50040;dashPattern=1 1;" edge="1" parent="1">
                    <mxGeometry width="50" height="50" relative="1" as="geometry">
                        <mxPoint x="1130" y="980" as="sourcePoint"/>
                        <mxPoint x="2327" y="980" as="targetPoint"/>
                    </mxGeometry>
                </mxCell>
                <mxCell id="113" value="EXPORT&lt;br&gt;&amp;gt;" style="rounded=1;whiteSpace=wrap;html=1;align=center;" vertex="1" parent="1">
                    <mxGeometry x="1510" y="805" width="670" height="30" as="geometry"/>
                </mxCell>
                <mxCell id="114" value="" style="endArrow=none;dashed=1;html=1;strokeWidth=4;fontColor=none;fillColor=#d80073;strokeColor=#A50040;dashPattern=1 1;" edge="1" parent="1">
                    <mxGeometry width="50" height="50" relative="1" as="geometry">
                        <mxPoint x="1150" y="797" as="sourcePoint"/>
                        <mxPoint x="2317.5" y="797" as="targetPoint"/>
                    </mxGeometry>
                </mxCell>
                <mxCell id="115" value="" style="endArrow=none;dashed=1;html=1;strokeWidth=4;fontColor=none;fillColor=#d80073;strokeColor=#A50040;dashPattern=1 1;" edge="1" parent="1">
                    <mxGeometry width="50" height="50" relative="1" as="geometry">
                        <mxPoint x="1772" y="360" as="sourcePoint"/>
                        <mxPoint x="1772.5" y="164.17" as="targetPoint"/>
                    </mxGeometry>
                </mxCell>
                <mxCell id="127" value="" style="group" vertex="1" connectable="0" parent="1">
                    <mxGeometry x="1522.5" y="227" width="230" height="30" as="geometry"/>
                </mxCell>
                <mxCell id="123" value="" style="rounded=0;whiteSpace=wrap;html=1;" vertex="1" parent="127">
                    <mxGeometry x="50" y="5" width="180" height="10" as="geometry"/>
                </mxCell>
                <mxCell id="124" value="" style="rounded=0;whiteSpace=wrap;html=1;" vertex="1" parent="127">
                    <mxGeometry x="50" y="20" width="180" height="10" as="geometry"/>
                </mxCell>
                <mxCell id="121" value="Site Information" style="text;html=1;align=center;verticalAlign=middle;resizable=0;points=[];autosize=1;strokeColor=none;fillColor=none;" vertex="1" parent="1">
                    <mxGeometry x="1982.5" y="220" width="100" height="20" as="geometry"/>
                </mxCell>
                <mxCell id="118" value="" style="rounded=0;whiteSpace=wrap;html=1;" vertex="1" parent="1">
                    <mxGeometry x="1782.5" y="240" width="180" height="105" as="geometry"/>
                </mxCell>
                <mxCell id="120" value="" style="rounded=0;whiteSpace=wrap;html=1;" vertex="1" parent="1">
                    <mxGeometry x="1982.5" y="240" width="180" height="105" as="geometry"/>
                </mxCell>
                <mxCell id="119" value="Team Information" style="text;html=1;align=center;verticalAlign=middle;resizable=0;points=[];autosize=1;strokeColor=none;fillColor=none;" vertex="1" parent="1">
                    <mxGeometry x="1772.5" y="220" width="110" height="20" as="geometry"/>
                </mxCell>
                <mxCell id="122" value="Name&lt;br&gt;Other" style="text;html=1;align=center;verticalAlign=middle;resizable=0;points=[];autosize=1;strokeColor=none;fillColor=none;" vertex="1" parent="1">
                    <mxGeometry x="1522.5" y="227" width="50" height="30" as="geometry"/>
                </mxCell>
                <mxCell id="128" value="Project Information" style="text;html=1;align=center;verticalAlign=middle;resizable=0;points=[];autosize=1;strokeColor=none;fillColor=none;" vertex="1" parent="1">
                    <mxGeometry x="1522.5" y="197" width="120" height="20" as="geometry"/>
                </mxCell>
                <mxCell id="129" value="" style="endArrow=none;dashed=1;html=1;strokeWidth=4;fontColor=none;fillColor=#d80073;strokeColor=#A50040;dashPattern=1 1;" edge="1" parent="1">
                    <mxGeometry width="50" height="50" relative="1" as="geometry">
                        <mxPoint x="1150" y="841.57" as="sourcePoint"/>
                        <mxPoint x="2317.5" y="841.57" as="targetPoint"/>
                    </mxGeometry>
                </mxCell>
                <mxCell id="130" value="" style="endArrow=none;dashed=1;html=1;strokeWidth=4;fontColor=none;fillColor=#d80073;strokeColor=#A50040;dashPattern=1 1;" edge="1" parent="1">
                    <mxGeometry width="50" height="50" relative="1" as="geometry">
                        <mxPoint x="1970" y="360" as="sourcePoint"/>
                        <mxPoint x="1970.5" y="164.16999999999996" as="targetPoint"/>
                    </mxGeometry>
                </mxCell>
            </root>
        </mxGraphModel>
    </diagram>
</mxfile>